<svg id="Layer_1" data-name="Layer 1" xmlns="http://www.w3.org/2000/svg" viewBox="0 0 323.56 323.43"><path d="M263.69,277.11c7.54-9.18,13.21-19.24,16-30.7,6.8-28.13.43-52.95-19.3-74.13-7.41-7.95-15.33-15.43-23-23.12-.87-.87-1.7-1.78-3.17-3.32,47.89-5,92.16,3.88,133.89,26.64-3.35,3.88-6.72,7.39-9.65,11.24-22.86,30-20.47,73.29,5.46,100.46,4.37,4.58,7.14,4.63,11.62.15q10.75-10.71,21.48-21.46c.86-.86,1.79-1.66,2.88-2.67,5.82,22.41,19.78,36.35,42.38,42.22l-19.33,19.3c-2.13,2.12-4.32,4.18-6.34,6.39-2.73,3-2.72,6.1.18,8.95,12.84,12.59,28.22,20.07,46.1,21.92,25.17,2.61,46.73-5.31,64.73-23.05a18.54,18.54,0,0,1,1.38-1.27,3.52,3.52,0,0,1,.87-.31c22.66,41.54,31.52,85.8,26.58,133.57-1.29-1.15-2.12-1.81-2.87-2.55-7.52-7.5-15-15.08-22.55-22.51-29.06-28.47-72.44-30.71-104.4-5.43l-1.54,1.18c-.85-.77-1.72-1.59-2.61-2.38q-53.21-46.75-119.86-22.76c-7.61,2.75-15,6.14-23.33,9.59.7-1.8,1.14-3,1.6-4.12,5.12-12.71,11.29-25.05,13.77-38.71q10.46-57.54-28.88-100.79Z" transform="translate(-234.21 -144.49)"/></svg>